Coordinates
version=1
nRows=22
nColumns=24
inDegrees=yes

Units are S.I. units (second, meters, Newtons, ...)
Angles are in degrees.

endheader
time	pelvis_tilt	pelvis_list	pelvis_rotation	pelvis_tx	pelvis_ty	pelvis_tz	hip_flexion_r	hip_adduction_r	hip_rotation_r	knee_angle_r	ankle_angle_r	subtalar_angle_r	mtp_angle_r	hip_flexion_l	hip_adduction_l	hip_rotation_l	knee_angle_l	ankle_angle_l	subtalar_angle_l	mtp_angle_l	lumbar_extension	lumbar_bending	lumbar_rotation
      3.52000000	     -3.56793056	      1.43020577	      6.63635815	      0.04911172	      0.67679316	     -0.29648398	     26.70114363	      2.00765534	      7.18774200	     -3.76306937	      7.25036120	    -13.37382147	      0.00000000	    -20.07588365	      5.68738773	     16.58831749	    -16.48137832	      3.29612805	     -0.41814484	      0.00000000	    -11.55429353	     -0.74578988	    -16.67912326
      3.53000000	     -3.20037989	      0.37714298	      6.10901383	      0.06557894	      0.67714242	     -0.29607656	     26.86872526	      3.76261622	      7.36281464	     -6.78500926	      6.13554708	    -13.41917516	      0.00000000	    -18.55201914	      4.74509336	     12.87517614	    -21.13696898	      1.57355324	      3.06602018	      0.00000000	    -11.74561077	      0.71119657	    -15.85861386
      3.54000000	     -3.40362093	     -0.63496158	      5.57613194	      0.08164086	      0.67700297	     -0.29574624	     27.73679190	      5.36356496	      7.06946897	    -10.06110777	      5.45839649	    -12.66298502	      0.00000000	    -15.95086316	      3.81840893	      9.61430733	    -26.29052088	     -0.96474376	      5.28605008	      0.00000000	    -11.28461370	      2.03763349	    -15.13811727
      3.55000000	     -3.30360524	     -1.73228205	      4.84218266	      0.09735406	      0.67725707	     -0.29529606	     28.21352489	      7.08019499	      6.50396564	    -13.21843248	      5.03912914	    -11.68196530	      0.00000000	    -13.46181930	      2.71246527	      6.75040458	    -31.49171780	     -3.94449447	      6.51248668	      0.00000000	    -11.33167394	      3.48196610	    -14.05793807
      3.56000000	     -3.58881273	     -2.72582315	      4.19693895	      0.11279214	      0.67721640	     -0.29495567	     28.88377317	      8.51799121	      5.82989939	    -16.03054592	      5.14074694	    -10.52390320	      0.00000000	    -10.28423506	      1.60948955	      4.36944079	    -36.79646611	     -7.24714915	      6.73020893	      0.00000000	    -10.90713872	      4.71497281	    -13.07028207
      3.57000000	     -3.29807345	     -3.90999274	      3.74414647	      0.12804751	      0.67807251	     -0.29478505	     28.48977402	     10.06637694	      5.35707896	    -18.02349648	      5.19199022	    -10.13156284	      0.00000000	     -7.64375222	      0.14663812	      2.58794162	    -41.84614367	    -10.23119758	      6.24846965	      0.00000000	    -11.26836599	      6.21165073	    -12.13089099
      3.58000000	     -3.89803205	     -4.70721931	      3.19606785	      0.14265943	      0.67791908	     -0.29436214	     28.91832384	     11.16123357	      5.04739708	    -19.81588232	      6.01454363	     -9.40843703	      0.00000000	     -3.85263984	     -0.87409128	      1.21111356	    -46.84065705	    -12.46650971	      5.26057654	      0.00000000	    -10.61235404	      7.05883658	    -11.27148974
      3.59000000	     -4.01226665	     -5.65043557	      2.82481676	      0.15726797	      0.67868697	     -0.29400691	     28.34411227	     12.36428641	      4.83800086	    -20.73879689	      6.84796684	     -9.15911964	      0.00000000	     -0.63333540	     -2.13254795	      0.34605728	    -51.34351777	    -13.57244016	      4.27968816	      0.00000000	    -10.54982999	      8.06948739	    -10.43203477
      3.60000000	     -4.11937553	     -6.46977857	      2.44429303	      0.17175516	      0.67978425	     -0.29351793	     27.40111948	     13.46435247	      4.90255896	    -21.06962836	      7.84953884	     -9.06263449	      0.00000000	      2.51215496	     -3.25416270	     -0.23746433	    -55.33032609	    -13.47879384	      3.21110190	      0.00000000	    -10.49394321	      8.84982475	     -9.55308812
      3.61000000	     -4.01985803	     -7.16143428	      2.09534538	      0.18617839	      0.68151564	     -0.29304487	     25.87722166	     14.44204429	      5.23472848	    -20.82361830	      8.92966744	     -9.00745977	      0.00000000	      5.31273948	     -4.22058831	     -0.60737387	    -58.67503180	    -12.27587860	      2.01326480	      0.00000000	    -10.69837537	      9.43211222	     -8.62492485
      3.62000000	     -4.05317655	     -7.67191344	      1.80598553	      0.20055979	      0.68343341	     -0.29256838	     24.19761569	     15.21972538	      5.94951537	    -20.11512340	      9.90845184	     -9.16198466	      0.00000000	      8.17260299	     -4.96818669	     -0.79387569	    -61.40308863	    -10.24420830	      0.69924070	      0.00000000	    -10.67815743	      9.75471153	     -7.90587659
      3.63000000	     -3.98001597	     -7.96090515	      1.52677776	      0.21493239	      0.68581015	     -0.29218267	     22.17434831	     15.75342294	      6.90286168	    -19.06903052	     10.73987419	     -9.41243855	      0.00000000	     10.73663342	     -5.44065412	     -0.93159953	    -63.36760212	     -7.66097559	     -0.80446597	      0.00000000	    -10.76378454	      9.80111307	     -7.15301884
      3.64000000	     -3.85281483	     -8.02442537	      1.23342891	      0.22930796	      0.68848187	     -0.29180605	     19.91643214	     16.04342766	      8.20653916	    -17.77934321	     11.30493968	     -9.92194873	      0.00000000	     13.06195020	     -5.66665494	     -1.10419568	    -64.59327464	     -4.85913854	     -2.40084415	      0.00000000	    -10.89192945	      9.56332105	     -6.40944829
      3.65000000	     -3.71017124	     -7.86086151	      0.88983053	      0.24355639	      0.69127049	     -0.29148072	     17.59101846	     16.06013941	      9.71983050	    -16.44100255	     11.68259782	    -10.48859633	      0.00000000	     15.19978704	     -5.65467927	     -1.39073812	    -65.12832408	     -2.08355813	     -4.09719221	      0.00000000	    -11.06667395	      9.07180007	     -5.72755091
      3.66000000	     -3.52116895	     -7.50269666	      0.59806572	      0.25781606	      0.69408221	     -0.29125280	     15.13196173	     15.80807842	     11.45020434	    -14.95174252	     11.85840574	    -11.42981747	      0.00000000	     17.13709663	     -5.42508202	     -1.67144994	    -65.04227589	      0.44632494	     -5.66555296	      0.00000000	    -11.27045233	      8.34519776	     -5.02760075
      3.67000000	     -3.37789095	     -7.04680377	      0.24569403	      0.27184155	      0.69664526	     -0.29112958	     12.79371388	     15.38583688	     13.25796130	    -13.55814946	     11.90033940	    -12.35315565	      0.00000000	     18.99693925	     -5.09550870	     -2.04352489	    -64.44662536	      2.75991258	     -7.11388187	      0.00000000	    -11.50136693	      7.56320371	     -4.38666213
      3.68000000	     -3.32323512	     -6.48266879	     -0.15748254	      0.28575928	      0.69882210	     -0.29105947	     10.61309883	     14.78181228	     14.99729778	    -12.22399065	     11.97239346	    -13.24470806	      0.00000000	     20.81857827	     -4.66424790	     -2.49178332	    -63.38982893	      4.73887511	     -8.29827252	      0.00000000	    -11.64635776	      6.67388150	     -3.71342449
      3.69000000	     -3.34254590	     -5.88933988	     -0.61671654	      0.29958272	      0.70054209	     -0.29099857	      8.59016759	     14.08851691	     16.53354805	    -10.95233514	     12.10441430	    -14.02983963	      0.00000000	     22.59821402	     -4.24018696	     -3.02139627	    -61.94689090	      6.39924237	     -9.13216219	      0.00000000	    -11.72794412	      5.76729404	     -2.98302013
      3.70000000	     -3.31594728	     -5.38473112	     -1.07134217	      0.31318655	      0.70186129	     -0.29110598	      6.57601996	     13.41847321	     18.17606392	     -9.71170778	     12.13531238	    -14.94456206	      0.00000000	     24.23473499	     -3.87733558	     -3.46265104	    -60.18414507	      7.86788971	     -9.59262622	      0.00000000	    -11.97029628	      5.03420876	     -2.32075313
      3.71000000	     -3.45430205	     -4.92033442	     -1.58970844	      0.32677788	      0.70257671	     -0.29119613	      4.87674127	     12.76360499	     19.17659182	     -8.63677019	     12.45229642	    -15.28861113	      0.00000000	     25.91527919	     -3.60387018	     -3.96626760	    -58.09447760	      9.08525858	     -9.63063435	      0.00000000	    -12.00214393	      4.35667110	     -1.65782462
      3.72000000	     -3.45640541	     -4.59569844	     -2.17391840	      0.34021071	      0.70297125	     -0.29134723	      3.02722062	     12.20121629	     20.51393073	     -7.52839121	     12.67526219	    -15.89374809	      0.00000000	     27.34396747	     -3.47158620	     -4.39503607	    -55.76246446	     10.05049208	     -9.30477386	      0.00000000	    -12.30186974	      3.88168565	     -0.73885031
      3.73000000	     -3.47322989	     -4.36241237	     -2.72517577	      0.35365839	      0.70296106	     -0.29161762	      1.26506708	     11.70481278	     21.55960269	     -6.51047322	     12.92263363	    -16.39476904	      0.00000000	     28.62605233	     -3.39396353	     -4.69074931	    -53.08974118	     10.89672422	     -8.65035202	      0.00000000	    -12.59580530	      3.54189977	      0.01951278
